<?xml version="1.0" standalone="no"?><!DOCTYPE svg PUBLIC "-//W3C//DTD SVG 1.1//EN" "http://www.w3.org/Graphics/SVG/1.1/DTD/svg11.dtd"><svg t="1705809897586" class="icon" viewBox="0 0 1024 1024" version="1.1" xmlns="http://www.w3.org/2000/svg" p-id="6938" xmlns:xlink="http://www.w3.org/1999/xlink" width="200" height="200"><path d="M512 512m-512 0a512 512 0 1 0 1024 0 512 512 0 1 0-1024 0Z" fill="#FFDA44" p-id="6939"></path><path d="M789.77362 650.831965h-43.876312v43.876312a29.250875 29.250875 0 0 1-29.250875 29.250875H643.519246a29.250875 29.250875 0 0 1-29.250875-29.250875V570.392059H416.824966v124.316218a29.250875 29.250875 0 0 1-29.250875 29.250875H314.446904a29.250875 29.250875 0 0 1-29.250875-29.250875v-43.876312h-43.876312a43.876312 43.876312 0 0 1-43.876312-43.876313V446.075841a43.876312 43.876312 0 0 1 43.876312-43.876312h43.876312v-43.876313a29.250875 29.250875 0 0 1 29.250875-29.250874h73.127187a29.250875 29.250875 0 0 1 29.250875 29.250874v124.316218h197.443405V358.323216a29.250875 29.250875 0 0 1 29.250875-29.250874h73.127187a29.250875 29.250875 0 0 1 29.250875 29.250874v43.876313h43.876312a43.876312 43.876312 0 0 1 43.876312 43.876312v160.879811a43.876312 43.876312 0 0 1-43.876312 43.876313z" fill="#FFFFFF" p-id="6940"></path><path d="M263.257873 453.38856h21.938156v146.254374h-21.938156a21.938156 21.938156 0 0 1-21.938156-21.938156V475.326716a21.938156 21.938156 0 0 1 21.938156-21.938156z" fill="#32C4EE" p-id="6941"></path><path d="M738.584589 453.38856h21.938156a21.938156 21.938156 0 0 1 21.938156 21.938156v102.378062a21.938156 21.938156 0 0 1-21.938156 21.938156h-21.938156V453.38856z" fill="#32C4EE" p-id="6942"></path></svg>