<?xml version="1.0" standalone="no"?><!DOCTYPE svg PUBLIC "-//W3C//DTD SVG 1.1//EN" "http://www.w3.org/Graphics/SVG/1.1/DTD/svg11.dtd"><svg t="1705809880288" class="icon" viewBox="0 0 1024 1024" version="1.1" xmlns="http://www.w3.org/2000/svg" p-id="5693" xmlns:xlink="http://www.w3.org/1999/xlink" width="200" height="200"><path d="M511.998 85.336c119.466 0 226.13 46.936 302.929 127.999h110.935C836.262 85.335 682.664 0 512 0 341.329 0 187.727 85.336 98.128 213.335h110.936c76.8-81.063 183.462-128 302.935-128m465.063 358.402l-4.265 12.798-34.135 64c-4.265 136.537-68.266 255.998-170.664 328.534v-85.336l82.982-165.969c1.078-2.153-0.488-4.695-2.9-4.695h-80.082V550.4h104.658a3.238 3.238 0 0 0 2.9-1.79l60.756-121.51c1.08-2.16-0.486-4.7-2.903-4.7H768V384h189.988a3.249 3.249 0 0 0 2.906-1.79l60.754-121.51c1.078-2.16-0.494-4.7-2.903-4.7H767.998S678.396 192 512 192c-166.403 0-256 64-256 64H5.249c-2.412 0-3.978 2.54-2.906 4.7L63.1 382.21a3.248 3.248 0 0 0 2.903 1.79H256v42.67H90.583c-2.411 0-3.983 2.542-2.905 4.695l60.755 121.507a3.253 3.253 0 0 0 2.903 1.8H256v42.662h-80.082c-2.42 0-3.984 2.542-2.906 4.695L256 768v85.335c-102.4-76.8-166.4-196.262-170.67-328.535L46.927 448l-17.062-34.127L17.064 384C4.265 426.67 0 469.335 0 511.998c0 281.6 230.399 512.003 511.998 512.003S1023.995 793.598 1023.995 512c0-42.665-4.268-85.33-17.068-128l-29.865 59.737z m-516.214-42.78l50.939-101.864a0.233 0.233 0 0 1 0.42 0l50.935 101.864c0.036 0.072 0.095 0.12 0.174 0.13l110.357 16.976c0.19 0.033 0.266 0.261 0.128 0.4l-80.656 80.655a0.215 0.215 0 0 0-0.06 0.2l16.969 110.342c0.031 0.187-0.176 0.33-0.345 0.238l-97.603-55.168a0.223 0.223 0 0 0-0.222-0.002L410 605.664a0.233 0.233 0 0 1-0.335-0.243l16.978-110.37a0.223 0.223 0 0 0-0.064-0.2l-76.39-76.389a0.236 0.236 0 0 1 0.127-0.4l110.36-16.975a0.212 0.212 0 0 0 0.17-0.13m221.817 439.577l-157.397 90.5a26.622 26.622 0 0 1-26.544 0l-157.394-90.5V746.67l158.869 91.346a23.668 23.668 0 0 0 23.597 0l158.869-91.346v93.863z" fill="#79B7FF" p-id="5694"></path></svg>