<?xml version="1.0" standalone="no"?><!DOCTYPE svg PUBLIC "-//W3C//DTD SVG 1.1//EN" "http://www.w3.org/Graphics/SVG/1.1/DTD/svg11.dtd"><svg t="1705809977068" class="icon" viewBox="0 0 1024 1024" version="1.1" xmlns="http://www.w3.org/2000/svg" p-id="8068" xmlns:xlink="http://www.w3.org/1999/xlink" width="200" height="200"><path d="M512 1024a512 512 0 1 1 512-512 512 512 0 0 1-512 512z m0-938.666667a426.666667 426.666667 0 1 0 426.666667 426.666667A426.666667 426.666667 0 0 0 512 85.333333z" fill="#1296db" p-id="8069"></path><path d="M512 1024c-167.466667 0-298.666667-224.853333-298.666667-512S344.533333 0 512 0s298.666667 224.853333 298.666667 512-131.2 512-298.666667 512z m0-938.666667c-115.626667 0-213.333333 195.413333-213.333333 426.666667s97.706667 426.666667 213.333333 426.666667 213.333333-195.413333 213.333333-426.666667S627.626667 85.333333 512 85.333333z" fill="#1296db" p-id="8070"></path><path d="M935.253333 405.333333H88.746667a42.666667 42.666667 0 0 1 0-85.333333h846.506666a42.666667 42.666667 0 0 1 0 85.333333zM935.253333 704H88.746667a42.666667 42.666667 0 1 1 0-85.333333h846.506666a42.666667 42.666667 0 0 1 0 85.333333z" fill="#1296db" p-id="8071"></path><path d="M512 1002.666667a42.666667 42.666667 0 0 1-42.666667-42.666667V64a42.666667 42.666667 0 0 1 85.333334 0v896a42.666667 42.666667 0 0 1-42.666667 42.666667z" fill="#1296db" p-id="8072"></path></svg>