<?xml version="1.0" standalone="no"?><!DOCTYPE svg PUBLIC "-//W3C//DTD SVG 1.1//EN" "http://www.w3.org/Graphics/SVG/1.1/DTD/svg11.dtd"><svg t="1705816675585" class="icon" viewBox="0 0 1024 1024" version="1.1" xmlns="http://www.w3.org/2000/svg" p-id="17771" data-spm-anchor-id="a313x.search_index.0.i14.22ee3a81waHR55" xmlns:xlink="http://www.w3.org/1999/xlink" width="200" height="200"><path d="M204.9 704.5H562v59H204.9z" fill="#13227a" p-id="17772"></path><path d="M829.5 928.3H161.8c-68.2-1.6-122.7-56.9-123.3-125.1V130.1c0-7.8 3.2-15.4 8.7-20.9 5.5-5.5 13-8.7 20.9-8.7h634.6c7.8 0 15.4 3.2 20.9 8.7 5.5 5.5 8.7 13 8.7 20.9v562h-59V160.9H97.7v643.4c1.3 35.2 29.2 63.4 64.4 65h667.4v59z" fill="#13227a" p-id="17773"></path><path d="M829.5 928.3c-41.5 0-81.3-16.5-110.6-45.8S673 813.4 673 771.8V364.4c0-7.8 3.2-15.4 8.7-20.9s13-8.7 20.9-8.7h253.6c7.8 0 15.4 3.2 20.9 8.7s8.7 13 8.7 20.9v408.5c-0.7 86-70.4 155.4-156.3 155.4zM732 394.1v379c0 53.7 43.6 97.3 97.3 97.3s97.3-43.6 97.3-97.3v-379H732z" fill="#13227a" p-id="17774"></path><path d="M531.3 624.3H236.1c-7.8 0-15.4-3.2-20.9-8.7s-8.7-13-8.7-20.9v-295c0-16.3 13.2-29.5 29.5-29.5h295.2c7.8 0 15.4 3.2 20.9 8.7 5.5 5.5 8.7 13 8.7 20.9V595c0 7.8-3.2 15.4-8.7 20.9-5.4 5.2-12.9 8.4-20.8 8.4z m-267.9-59h236V329.1h-236v236.2z" fill="#13227a" p-id="17775"></path></svg>