<?xml version="1.0" standalone="no"?><!DOCTYPE svg PUBLIC "-//W3C//DTD SVG 1.1//EN" "http://www.w3.org/Graphics/SVG/1.1/DTD/svg11.dtd"><svg t="1705809817664" class="icon" viewBox="0 0 1024 1024" version="1.1" xmlns="http://www.w3.org/2000/svg" p-id="4178" xmlns:xlink="http://www.w3.org/1999/xlink" width="200" height="200"><path d="M792 568h20v15h-20zM792 632h20v16h-20zM792 600h20v16h-20zM792 671h-5v20h15c5.522 0 10-4.478 10-10v-15h-20v5zM695 671h23v20h-23zM741 671h23v20h-23zM655 671h15v20h-15z" fill="#58A80A" p-id="4179"></path><path d="M892.22 305.745c-12.792-35.47-34.829-57.516-59.981-70.869-46.626-8.695-88.92 0.45-88.92 0.45s-0.673-7.856-5.523-19.05c-21.505 0.785-36.434 4.062-36.602 4.099l-17.104 3.817-1.129-17.176c-0.18-1.665-2.865-23.202-23.363-44.953-4.891-5.19-10.425-9.947-16.544-14.284-19.8-4.704-43.494-7.548-71.851-7.548-163.988 0-186.667 151.702-186.667 151.702s-144.798-28.896-144.798 102.579c0 4.3 0.215 8.458 0.621 12.487h363.595C619.97 407 633 420.03 633 436.047v75.366c53.38-0.416 103.102-0.717 135.412-0.717 40.331 0 78.008-20.708 103.369-56.816 30.104-42.858 37.936-99.62 20.439-148.135z" fill="#FCDE9E" p-id="4180"></path><path d="M941.048 321.551c-7.421-19.705-17.797-35.231-29.929-47.458 3.494 6.788 6.606 13.944 9.322 21.474 20.759 57.561 11.521 124.83-24.109 175.557-15.687 22.334-35.35 39.847-57.441 51.721 83.651-18.619 133.946-116.889 102.157-201.294zM718.519 187.531c-4.121-4.321-8.92-8.638-14.51-12.811a114.696 114.696 0 0 1 5.372 13.881c2.729-0.368 5.794-0.734 9.138-1.07z" fill="#FCDE9E" p-id="4181"></path><path d="M896.331 471.124c35.63-50.727 44.868-117.996 24.109-175.557-2.716-7.53-5.828-14.686-9.322-21.474-15.696-30.489-39.196-53.445-70.105-68.396-26.871-12.999-58.53-19.59-94.098-19.59-10.73 0-20.382 0.621-28.397 1.425-3.344 0.335-6.409 0.702-9.138 1.07a114.76 114.76 0 0 0-5.372-13.881c-4.427-9.586-11.026-20.537-20.885-31.401-15.36-16.925-35.517-30.341-59.91-39.874-29.519-11.536-65.429-17.385-106.732-17.385-95.96 0-148.522 49.066-175.718 90.227-19.239 29.118-28.612 58.104-32.832 74.941a218.333 218.333 0 0 0-22.214-1.142c-23.336 0-56.963 3.964-84.637 22.853-32.509 22.188-48.992 58.535-48.992 108.031 0 8.994 0.732 17.673 2.175 26.029H84.047C68.03 407 55 420.03 55 436.047v307.906C55 759.97 68.03 773 84.047 773H321v43h-26.289C278.88 816 266 828.88 266 844.711v0.578C266 861.12 278.88 874 294.711 874h112.578C423.12 874 436 861.12 436 845.289v-0.578C436 828.88 423.12 816 407.289 816H379v-43h224.953C619.97 773 633 759.97 633 743.953V541.414c53.389-0.417 103.123-0.718 135.412-0.718 24.862 0 48.835-6.219 70.478-17.852 22.091-11.873 41.754-29.387 57.441-51.72zM85 743V437h518v306H85z m683.412-232.304c-32.311 0-82.032 0.301-135.412 0.717v-75.366C633 420.03 619.97 407 603.953 407H184.894c-1.854-8.244-2.806-16.915-2.806-26.029 0-66.942 34.866-100.884 103.629-100.884 17.798 0 30.835 2.628 30.94 2.65l15.645 3.26 2.265-15.819c0.055-0.384 5.793-38.859 31.227-77.352 33.655-50.938 84.354-76.765 150.688-76.765 54.011 0 97.203 10.905 126.572 31.718 6.12 4.337 11.654 9.094 16.544 14.284 20.498 21.751 23.184 43.288 23.363 44.953l1.129 17.176 17.104-3.817c0.168-0.037 15.097-3.315 36.602-4.099 2.926-0.107 5.97-0.169 9.119-0.169 26.864 0 57.94 4.232 85.323 18.769 25.152 13.353 47.189 35.399 59.981 70.869 17.497 48.515 9.665 105.277-20.438 148.135-25.361 36.108-63.038 56.816-103.369 56.816z" fill="#58A80A" p-id="4182"></path><path d="M603 437H85v306h518V437z m-47.812 285H133.541C117.339 722 107 704.557 107 692.548V486.635C107 473.051 118.906 462 133.541 462h421.647C569.333 462 580 472.591 580 486.635v205.913c0 14.164-9.486 29.452-24.812 29.452z" fill="#FCDE9E" p-id="4183"></path><path d="M550 492H137v199.915l0.033 0.085h412.969L550 492z" fill="#FFFFFF" p-id="4184"></path><path d="M580 486.635C580 472.591 569.333 462 555.188 462H133.541C118.906 462 107 473.051 107 486.635v205.913C107 704.557 117.339 722 133.541 722h421.647C570.514 722 580 706.712 580 692.548V486.635zM550.002 692H137.033l-0.033-0.085V492h413l0.002 200z" fill="#58A80A" p-id="4185"></path></svg>