<?xml version="1.0" standalone="no"?><!DOCTYPE svg PUBLIC "-//W3C//DTD SVG 1.1//EN" "http://www.w3.org/Graphics/SVG/1.1/DTD/svg11.dtd"><svg t="1705810162177" class="icon" viewBox="0 0 1024 1024" version="1.1" xmlns="http://www.w3.org/2000/svg" p-id="15713" xmlns:xlink="http://www.w3.org/1999/xlink" width="200" height="200"><path d="M880.65 959.95H143.37c-29.1 0-55.77-15.44-69.65-40.27-13.52-24.19-12.9-52.73 1.64-76.37l249.68-406.15V107.4c0-23.95 19.42-43.35 43.35-43.35h287.22c23.93 0 43.35 19.4 43.35 43.35v329.75l249.71 406.16c14.51 23.64 15.13 52.18 1.61 76.37-13.89 24.84-40.56 40.27-69.63 40.27z m-5.84-71.21h0.28-0.28z m-716.09-15.49h706.55l-246.6-401.13a43.514 43.514 0 0 1-6.41-22.7V150.75H411.74v298.66c0 8.02-2.23 15.88-6.41 22.7L158.72 873.25z" fill="#7373FF" p-id="15714"></path><path d="M613.16 791.37h-202.3c-23.93 0-43.35-19.4-43.35-43.35s19.42-43.35 43.35-43.35h202.3c23.93 0 43.35 19.4 43.35 43.35s-19.42 43.35-43.35 43.35z" fill="#7373FF" p-id="15715"></path></svg>