<?xml version="1.0" standalone="no"?><!DOCTYPE svg PUBLIC "-//W3C//DTD SVG 1.1//EN" "http://www.w3.org/Graphics/SVG/1.1/DTD/svg11.dtd"><svg t="1705810147456" class="icon" viewBox="0 0 1062 1024" version="1.1" xmlns="http://www.w3.org/2000/svg" p-id="14556" xmlns:xlink="http://www.w3.org/1999/xlink" width="207.421875" height="200"><path d="M86.504752 447.445829l253.386835-170.486449 181.227456 132.208096a57.669835 57.669835 0 0 0 22.058711 7.20873 56.083914 56.083914 0 0 0 36.76452-7.20873l448.166702-300.315663A56.876874 56.876874 0 0 0 1005.257304 0H720.872932a56.876874 56.876874 0 0 0 0 113.753749h96.308624L552.044491 291.448926 370.744949 159.096656a57.021049 57.021049 0 0 0-36.47617-7.208729 58.751144 58.751144 0 0 0-22.707498 7.208729L29.844139 348.902499A56.876874 56.876874 0 0 0 86.504752 447.445829z" fill="#AEC9FF" p-id="14557"></path><path d="M543.03358 549.233087a57.669835 57.669835 0 0 1-21.626188-7.208729l-180.218233-131.84766L0 650.299472v259.946779a113.825836 113.825836 0 0 0 113.753749 113.753749h834.482506a113.825836 113.825836 0 0 0 113.753749-113.753749V219.073284L579.798099 542.312707a56.516438 56.516438 0 0 1-36.764519 7.208729z" fill="#3366FF" p-id="14558"></path></svg>